# xmcd
#
# Track frame offsets:
#	225
#	10471
#	23578
#	35412
#	47587
#	60564
#	74243
#	88206
#	104129
#	116067
#	133243
#	145086
#	169297
#	192945
#
# Disc length: 2932 seconds
#
# Revision: 1
# Processed by: cddbd v1.5.2PL0 Copyright (c) Steve Scherf et al.
# Submitted via: audiograbber 1.83.01
#
DISCID=d50b710e
DTITLE=Hermann Lammers Meyer - Till The End Of Time
DYEAR=1994
DGENRE=Country
TTITLE0=Kleenex Teardrop Tissue
TTITLE1=To See An Angel Cry
TTITLE2=Till The End Of Time (with Norma Jean)
TTITLE3=Good Songs, Bad Songs
TTITLE4=My Life In Song
TTITLE5=Ten Minute Romance (with Norma Jean)
TTITLE6=Hell Or Houston
TTITLE7=Season To Be Merry
TTITLE8=Hillbilly Fever (with Kitty Wells and Johnny Wright)
TTITLE9=Together Alone
TTITLE10=Cry Every Night
TTITLE11=Honky Tonk Trail
TTITLE12=What Made Bob Holler
TTITLE13=Faith In Santa (with Norma Jean)
EXTD=
EXTT0=
EXTT1=
EXTT2=
EXTT3=
EXTT4=
EXTT5=
EXTT6=
EXTT7=
EXTT8=
EXTT9=
EXTT10=
EXTT11=
EXTT12=
EXTT13=
PLAYORDER=
